<svg xmlns="http://www.w3.org/2000/svg" viewBox="0 0 1000 1000"><rect width="1000" height="1000" fill="#e69679" rx="250"/><path fill="#222" d="M226.5 484.2q-12 0-20.8-9.6t-8.8-20q0-5.6 1.6-11.2t6.4-11.2q20.8-25.6 54.4-50.4 33.6-24.8 69.6-48.8 36.8-24 67.2-48 31.2-24 46.4-48 5.6-8 11.2-12.8 6.4-5.6 16.8-5.6 12.8 0 20 8.8 8 8.8 8 19.2 0 6.4-2.4 13.6-2.4 7.2-8.8 17.6-12.8 20-42.4 42.4-29.6 21.6-66.4 46.4-36.8 24.8-71.2 51.2-34.4 25.6-56 53.6-4.8 6.4-11.2 9.6-5.6 3.2-13.6 3.2zM360 562.6q-13.6 0-21.6-7.2-8-7.2-11.2-20.8-6.4-35.2-7.2-74.4 0-40 1.6-78.4 1.6-38.4 1.6-67.2 0-35.2-4.8-56-4.8-21.6-11.2-34.4-6.4-13.6-11.2-22.4-4.8-9.6-4.8-20.8 0-11.2 6.4-17.6 6.4-7.2 19.2-7.2 16.8 0 32 19.2t24 54.4q9.6 35.2 9.6 82.4 0 28.8-2.4 64.8-1.6 36-1.6 74.4.8 37.6 8 72.8 4 19.2-4.8 28.8-8.8 9.6-21.6 9.6zM478.5 457q-6.4 0-12.8-2.4-6.4-3.2-21.6-13.6-28.8-20.8-62.4-40-33.6-19.2-68-36.8-33.6-18.4-64-33.6-30.4-15.2-53.6-29.6-15.2-8-20-18.4-4-11.2-4-20.8 0-9.6 5.6-16t16-6.4q9.6 0 16 2.4 7.2 2.4 19.2 8.8 31.2 17.6 74.4 40 44 21.6 92.8 49.6 49.6 27.2 96 60.8 14.4 9.6 14.4 26.4 0 12.8-8.8 21.6-8.8 8-19.2 8zM539.6 920.2q-20.8 0-31.2-15.2-10.4-14.4-7.2-40 16.8-91.2 39.2-183.2 22.4-92.8 52-183.2 29.6-90.4 67.2-176.8Q698 234.6 745.2 153q12.8-22.4 24-32 11.2-10.4 24.8-10.4 12.8 0 22.4 10.4 9.6 9.6 11.2 26.4 2.4 16.8-10.4 39.2Q748.4 305 702.8 420.2 658 534.6 628.4 649 599.6 762.6 578 879.4q-3.2 20.8-13.6 30.4-9.6 10.4-24.8 10.4z"/></svg>